<svg width="900" height="280" viewBox="0 0 900 280" fill="none" xmlns="http://www.w3.org/2000/svg">
<rect width="900" height="280" fill="white"/>
<path d="M542.839 222.909C528.815 222.909 518.301 210.015 521.061 196.203L555.508 94.0946H528.302C516.939 94.0946 508.43 83.6287 510.699 72.443C512.405 64.0379 519.763 58 528.302 58H635.12C646.483 58 654.991 68.4659 652.722 79.6516C651.017 88.0567 643.658 94.0946 635.12 94.0946H600.819L564.617 204.986C562.534 215.41 553.421 222.909 542.839 222.909Z" fill="black"/>
<path d="M431.407 222.909C417.388 222.909 406.873 210.025 409.623 196.214L447.614 75.9413C449.691 65.5092 458.808 58 469.398 58C483.417 58 493.932 70.8849 491.182 84.6953L453.191 204.968C451.114 215.4 441.996 222.909 431.407 222.909Z" fill="black"/>
<path d="M264.633 222.909L307.936 75.9529C310.015 65.5141 319.138 58 329.735 58C343.753 58 354.272 70.8765 351.538 84.6893L317.267 186.815H371.706C383.069 186.815 391.577 197.281 389.308 208.467C387.603 216.872 380.244 222.909 371.706 222.909H264.633Z" fill="black"/>
<path d="M87.2959 222.404L133.73 58H213.974C220.276 58 231.186 58 242.7 58C265.093 58 281.308 79.5267 274.174 100.752C270.426 111.901 266.828 121.524 264.825 124.055C259.384 130.931 248.127 132.948 238.909 136.615C229.691 140.129 219.339 141.886 207.854 141.886L214.201 130.885C228.86 130.885 244.522 135.469 253.135 141.886C261.749 148.304 259.711 155.615 250.944 180.569C242.177 205.523 211.516 216.904 211.516 216.904C200.635 220.571 188.319 222.404 174.567 222.404H87.2959ZM138.072 189.629C138.072 189.629 154.576 189.629 176.525 189.629C198.473 189.629 212.963 153.117 212.24 153.117C211.516 153.117 198.878 153.117 193.438 153.117H150.45L161.096 121.717C161.096 121.717 186.436 121.717 203.443 121.717C220.449 121.717 233.475 90.7753 233.475 90.7753C233.475 90.7753 209.214 90.7753 203.321 90.7753H171.585L138.072 189.629Z" fill="black"/>
<path d="M813.48 58H682.378C673.57 58 666.005 64.258 664.354 72.9094C662.196 84.2181 670.865 94.6974 682.378 94.6974H728.668L662.531 160.753H690.542L622.07 220.936H758.147C763.601 220.936 768.748 218.41 772.083 214.095C781.033 202.517 772.781 185.707 758.147 185.707H716.219L774.575 126.991H751.233L813.48 58Z" fill="url(#paint0_linear_4782_12)"/>
<defs>
<linearGradient id="paint0_linear_4782_12" x1="717.775" y1="58" x2="717.775" y2="220.936" gradientUnits="userSpaceOnUse">
<stop stop-color="#00FF69"/>
<stop offset="1" stop-color="#00DC5A"/>
</linearGradient>
</defs>
</svg>
