<svg width="32" height="32" viewBox="0 0 48 48" fill="none" xmlns="http://www.w3.org/2000/svg">
  <defs>
    <linearGradient id="bg" x1="0" y1="0" x2="48" y2="48" gradientUnits="userSpaceOnUse">
      <stop offset="0%" stop-color="#3b0764"/>
      <stop offset="100%" stop-color="#0f0529"/>
    </linearGradient>
    <linearGradient id="bd" x1="0" y1="0" x2="48" y2="48" gradientUnits="userSpaceOnUse">
      <stop offset="0%" stop-color="#a855f7"/>
      <stop offset="60%" stop-color="#7c3aed"/>
      <stop offset="100%" stop-color="#f59e0b"/>
    </linearGradient>
    <linearGradient id="cr" x1="12" y1="12" x2="36" y2="34" gradientUnits="userSpaceOnUse">
      <stop offset="0%" stop-color="#fde68a"/>
      <stop offset="100%" stop-color="#f59e0b"/>
    </linearGradient>
    <linearGradient id="gl" x1="0" y1="0" x2="0" y2="1">
      <stop offset="0%" stop-color="#ffffff" stop-opacity="0.12"/>
      <stop offset="100%" stop-color="#ffffff" stop-opacity="0"/>
    </linearGradient>
    <clipPath id="cl"><rect x="1.5" y="1.5" width="45" height="45" rx="12.5"/></clipPath>
  </defs>
  <rect x="1.5" y="1.5" width="45" height="45" rx="12.5" fill="url(#bg)"/>
  <rect x="1.5" y="1.5" width="45" height="45" rx="12.5" fill="none" stroke="url(#bd)" stroke-width="1.4"/>
  <rect x="1.5" y="1.5" width="45" height="20" rx="12.5" fill="url(#gl)" clip-path="url(#cl)"/>
  <path d="M13 32 L13 21.5 L18.5 26.5 L24 14.5 L29.5 26.5 L35 21.5 L35 32 Z" fill="url(#cr)"/>
  <rect x="12" y="31" width="24" height="4" rx="2" fill="url(#cr)"/>
  <circle cx="13" cy="21.5" r="2.2" fill="#fde68a"/>
  <circle cx="24" cy="14.5" r="2.5" fill="#ffffff" opacity="0.95"/>
  <circle cx="35" cy="21.5" r="2.2" fill="#fde68a"/>
  <path d="M24 29.5 L25.4 31.5 L24 33.5 L22.6 31.5 Z" fill="#ffffff" opacity="0.7"/>
</svg>
