<svg xmlns="http://www.w3.org/2000/svg" width="116px" height="64px" viewBox="0 0 116 64">
  <g transform="translate(-165 -54)">
    <g transform="translate(165.03 53.22)">
      <path d="M81.169,36.76q0,10.923-8.64,14.105L84.043,67.12h-12.5l-10.073-14.5H54.449v14.5H44.31V21.68H61.548q10.6,0,15.113,3.574T81.169,36.76Zm-12.222,5.39q1.891-1.666,1.891-5.357t-1.95-5c-1.3-.908-3.583-1.366-6.832-1.366H54.449V43.842h7.415C65.33,43.842,67.688,43.284,68.946,42.151Z" transform="translate(-7.231 -3.32)" fill="#278ac4"/>
      <path d="M92.01,21.68V67.12h10.148V35.852Z" transform="translate(-15.19 -3.32)" fill="#278ac4"/>
      <path d="M109.732,30.278v-8.6h23.462V51.107q0,8.057-4.166,12.056a14.747,14.747,0,0,1-10.664,4A19.1,19.1,0,0,1,104.2,60.9l5.216-7.215q4.066,4.391,8.515,4.382a4.8,4.8,0,0,0,3.641-1.666,7.131,7.131,0,0,0,1.508-4.932v-21.2Z" transform="translate(-17.224 -3.32)" fill="#278ac4"/>
      <path d="M99.52,21.234c-.05,2.4,4.066,3.733,5.232.775,2.808-7.123,4.657-20.229,4.657-20.229S99.72,11.286,99.52,21.234Z" transform="translate(-16.443)" fill="#07223e"/>
      <path d="M101.573,22.373,92.05,15.4l6.665,9.481S102.206,22.565,101.573,22.373Z" transform="translate(-15.196 -2.272)" fill="#07223e"/>
      <path d="M14.884,29.886a3.941,3.941,0,0,0-1.466,3.191,3.616,3.616,0,0,0,1.791,3.158q1.783,1.158,8.282,2.758t10,4.782q3.583,3.191,3.583,9.306A12.264,12.264,0,0,1,32.48,63Q27.889,66.8,20.416,66.8,9.585,66.8.97,58.8L7.019,51.39q7.348,6.432,13.6,6.432a7.173,7.173,0,0,0,4.416-1.2,3.866,3.866,0,0,0,1.591-3.249,3.816,3.816,0,0,0-1.666-3.258c-1.125-.833-3.333-1.616-6.665-2.433Q10.3,45.791,6.619,42.767T2.945,33.294a11.834,11.834,0,0,1,4.649-10A18.5,18.5,0,0,1,19.208,19.78a27.919,27.919,0,0,1,9.106,1.566A24.361,24.361,0,0,1,36.246,25.8L31.113,33.21a20.1,20.1,0,0,0-12.231-4.524,6.124,6.124,0,0,0-4,1.2Z" transform="translate(0 -3.003)" fill="#278ac4"/>
    </g>
    <rect width="116" height="64" transform="translate(165 54)" fill="none"/>
  </g>
</svg>
